REM DIRINDEX 1\2,1\3,1\4,1\5
REM DIRNAME folder01,folder02,folder03,folder04,folder05
TITLE ""
FILE "CD2Track12.mp3" MP3
  TRACK 01 AUDIO
    TITLE "0:"
    INDEX 01 00:00:00
  TRACK 02 AUDIO
    TITLE "5:cjc100_1472"
    INDEX 01 00:00:23
  TRACK 03 AUDIO
    TITLE "0:"
    INDEX 01 00:03:19
  TRACK 04 AUDIO
    TITLE "2:cjc100_1473"
    INDEX 01 00:04:31
  TRACK 05 AUDIO
    TITLE "2:cjc100_1474"
    INDEX 01 00:05:50
  TRACK 06 AUDIO
    TITLE "0:"
    INDEX 01 00:12:01
  TRACK 07 AUDIO
    TITLE "2:cjc100_1475"
    INDEX 01 00:12:42
  TRACK 08 AUDIO
    TITLE "2:cjc100_1476"
    INDEX 01 00:13:49
  TRACK 09 AUDIO
    TITLE "0:"
    INDEX 01 00:19:16
  TRACK 10 AUDIO
    TITLE "2:cjc100_1477"
    INDEX 01 00:19:52
  TRACK 11 AUDIO
    TITLE "2:cjc100_1478"
    INDEX 01 00:20:61
  TRACK 12 AUDIO
    TITLE "0:"
    INDEX 01 00:25:72
  TRACK 13 AUDIO
    TITLE "2:cjc100_1479"
    INDEX 01 00:26:36
  TRACK 14 AUDIO
    TITLE "2:cjc100_1480"
    INDEX 01 00:28:00
  TRACK 15 AUDIO
    TITLE "0:"
    INDEX 01 00:33:42
  TRACK 16 AUDIO
    TITLE "2:cjc100_1481"
    INDEX 01 00:34:08
  TRACK 17 AUDIO
    TITLE "2:cjc100_1482"
    INDEX 01 00:35:21
  TRACK 18 AUDIO
    TITLE "0:"
    INDEX 01 00:41:57
  TRACK 19 AUDIO
    TITLE "2:cjc100_1483"
    INDEX 01 00:42:21
  TRACK 20 AUDIO
    TITLE "2:cjc100_1484"
    INDEX 01 00:43:39
  TRACK 21 AUDIO
    TITLE "0:"
    INDEX 01 00:47:11
  TRACK 22 AUDIO
    TITLE "2:cjc100_1485"
    INDEX 01 00:47:46
  TRACK 23 AUDIO
    TITLE "2:cjc100_1486"
    INDEX 01 00:49:18
  TRACK 24 AUDIO
    TITLE "0:"
    INDEX 01 00:55:44
  TRACK 25 AUDIO
    TITLE "2:cjc100_1487"
    INDEX 01 00:56:08
  TRACK 26 AUDIO
    TITLE "2:cjc100_1488"
    INDEX 01 00:57:37
  TRACK 27 AUDIO
    TITLE "0:"
    INDEX 01 01:04:58
  TRACK 28 AUDIO
    TITLE "2:cjc100_1489"
    INDEX 01 01:05:28
  TRACK 29 AUDIO
    TITLE "2:cjc100_1490"
    INDEX 01 01:06:57
  TRACK 30 AUDIO
    TITLE "0:"
    INDEX 01 01:13:02
  TRACK 31 AUDIO
    TITLE "2:cjc100_1491"
    INDEX 01 01:13:38
  TRACK 32 AUDIO
    TITLE "2:cjc100_1492"
    INDEX 01 01:14:66
  TRACK 33 AUDIO
    TITLE "0:"
    INDEX 01 01:21:31
  TRACK 34 AUDIO
    TITLE "2:cjc100_1493"
    INDEX 01 01:21:67
  TRACK 35 AUDIO
    TITLE "2:cjc100_1494"
    INDEX 01 01:22:68
  TRACK 36 AUDIO
    TITLE "0:"
    INDEX 01 01:29:17
  TRACK 37 AUDIO
    TITLE "2:cjc100_1495"
    INDEX 01 01:29:58
  TRACK 38 AUDIO
    TITLE "2:cjc100_1496"
    INDEX 01 01:31:10
  TRACK 39 AUDIO
    TITLE "0:"
    INDEX 01 01:39:21
  TRACK 40 AUDIO
    TITLE "2:cjc100_1497"
    INDEX 01 01:39:64
  TRACK 41 AUDIO
    TITLE "2:cjc100_1498"
    INDEX 01 01:40:56
  TRACK 42 AUDIO
    TITLE "0:"
    INDEX 01 01:46:12
  TRACK 43 AUDIO
    TITLE "2:cjc100_1499"
    INDEX 01 01:46:47
  TRACK 44 AUDIO
    TITLE "2:cjc100_1500"
    INDEX 01 01:48:01
  TRACK 45 AUDIO
    TITLE "0:"
    INDEX 01 01:52:55
  TRACK 46 AUDIO
    TITLE "2:cjc100_1501"
    INDEX 01 01:53:31
  TRACK 47 AUDIO
    TITLE "2:cjc100_1502"
    INDEX 01 01:54:70
  TRACK 48 AUDIO
    TITLE "0:"
    INDEX 01 02:03:32
  TRACK 49 AUDIO
    TITLE "2:cjc100_1503"
    INDEX 01 02:03:71
  TRACK 50 AUDIO
    TITLE "2:cjc100_1504"
    INDEX 01 02:05:34
  TRACK 51 AUDIO
    TITLE "0:"
    INDEX 01 02:11:19
  TRACK 52 AUDIO
    TITLE "2:cjc100_1505"
    INDEX 01 02:11:61
  TRACK 53 AUDIO
    TITLE "2:cjc100_1506"
    INDEX 01 02:13:07
  TRACK 54 AUDIO
    TITLE "0:"
    INDEX 01 02:18:39
  TRACK 55 AUDIO
    TITLE "2:cjc100_1507"
    INDEX 01 02:19:11
  TRACK 56 AUDIO
    TITLE "2:cjc100_1508"
    INDEX 01 02:20:24
  TRACK 57 AUDIO
    TITLE "0:"
    INDEX 01 02:26:60
  TRACK 58 AUDIO
    TITLE "2:cjc100_1509"
    INDEX 01 02:27:28
  TRACK 59 AUDIO
    TITLE "2:cjc100_1510"
    INDEX 01 02:28:55
  TRACK 60 AUDIO
    TITLE "0:"
    INDEX 01 02:34:11
  TRACK 61 AUDIO
    TITLE "2:cjc100_1511"
    INDEX 01 02:34:54
  TRACK 62 AUDIO
    TITLE "2:cjc100_1512"
    INDEX 01 02:35:65
  TRACK 63 AUDIO
    TITLE "0:"
    INDEX 01 02:40:56
  TRACK 64 AUDIO
    TITLE "2:cjc100_1513"
    INDEX 01 02:41:24
  TRACK 65 AUDIO
    TITLE "2:cjc100_1514"
    INDEX 01 02:42:45
  TRACK 66 AUDIO
    TITLE "0:"
    INDEX 01 02:47:72
